<svg width="24" height="24" viewBox="0 0 24 24" fill="none" xmlns="http://www.w3.org/2000/svg">
<g id="icons8_cat_profile 1">
<path id="Vector" d="M22 12C22 17.5225 17.5225 22 12 22C6.4775 22 2 17.5225 2 12C2 6.4775 6.4775 2 12 2C17.5225 2 22 6.4775 22 12Z" fill="url(#paint0_radial_19_1643)"/>
<path id="Vector_2" d="M12 22C14.537 22 16.8475 21.0495 18.6095 19.491C17.322 17.0725 14.779 15.5 12 15.5C9.221 15.5 6.678 17.0725 5.3905 19.491C7.1525 21.0495 9.463 22 12 22Z" fill="url(#paint1_radial_19_1643)"/>
<path id="Vector_3" opacity="0.05" d="M17.219 9.1535C17.493 8.077 17.6255 6.4685 16.78 4.776C16.695 4.6055 16.5235 4.5 16.3335 4.5C15.818 4.5 15.4535 4.9515 15.0675 5.4305C14.8305 5.7245 14.5655 6.0535 14.2765 6.267C12.841 5.694 11.1595 5.694 9.724 6.267C9.435 6.0535 9.17 5.7245 8.9325 5.43C8.5465 4.9515 8.182 4.5 7.6665 4.5C7.4765 4.5 7.305 4.6055 7.219 4.7765C6.374 6.4685 6.5065 8.077 6.7805 9.1535C6.594 9.648 6.5 10.1565 6.5 10.6665C6.5 13.3315 8.9675 15.5 12 15.5C15.0325 15.5 17.5 13.3315 17.5 10.6665C17.5 10.1565 17.406 9.648 17.219 9.1535Z" fill="black"/>
<path id="Vector_4" opacity="0.07" d="M16.957 9.1685C17.2385 8.1145 17.3835 6.5415 16.557 4.888C16.5145 4.8035 16.428 4.75 16.3335 4.75C15.9375 4.75 15.6245 5.138 15.262 5.5875C14.983 5.9335 14.6695 6.3225 14.305 6.55C12.8585 5.931 11.141 5.931 9.6945 6.55C9.33 6.3225 9.0165 5.934 8.7375 5.5875C8.3755 5.138 8.0625 4.75 7.6665 4.75C7.572 4.75 7.4855 4.8035 7.443 4.888C6.617 6.5415 6.7615 8.114 7.043 9.1685C6.8485 9.658 6.75 10.161 6.75 10.6665C6.75 13.194 9.105 15.25 12 15.25C14.895 15.25 17.25 13.194 17.25 10.6665C17.25 10.161 17.1515 9.6575 16.957 9.1685Z" fill="black"/>
<path id="Vector_5" d="M16.6935 9.1845C16.9625 8.2255 17.1595 6.652 16.3335 5C15.786 5 15.2375 6.348 14.32 6.8295C13.6265 6.514 12.838 6.333 12.0005 6.333C11.163 6.333 10.3745 6.514 9.681 6.8295C8.763 6.348 8.2145 5 7.6665 5C6.8405 6.652 7.037 8.2255 7.3065 9.1845C7.1115 9.6475 7 10.1455 7 10.6665C7 13.06 9.2385 15 12 15C14.7615 15 17 13.06 17 10.6665C17 10.1455 16.8885 9.6475 16.6935 9.1845Z" fill="url(#paint2_linear_19_1643)"/>
<path id="Vector_6" d="M14.346 9.73193L14 10.5634L13.654 9.73193C13.2735 9.82393 13 10.0624 13 10.3444C13 10.7064 13.448 10.9999 14 10.9999C14.552 10.9999 15 10.7064 15 10.3444C15 10.0624 14.7265 9.82393 14.346 9.73193Z" fill="#0363B1"/>
<path id="Vector_7" d="M10.346 9.73193L10 10.5634L9.654 9.73193C9.2735 9.82393 9 10.0624 9 10.3444C9 10.7064 9.448 10.9999 10 10.9999C10.552 10.9999 11 10.7064 11 10.3444C11 10.0624 10.7265 9.82393 10.346 9.73193Z" fill="#0363B1"/>
<path id="Vector_8" d="M11.9999 22C14.3549 22 16.5144 21.1805 18.2214 19.817C17.0624 17.554 14.7174 16 11.9999 16C9.28244 16 6.93744 17.554 5.77844 19.817C7.48544 21.1805 9.64494 22 11.9999 22Z" fill="url(#paint3_linear_19_1643)"/>
</g>
<defs>
<radialGradient id="paint0_radial_19_1643" cx="0" cy="0" r="1" gradientUnits="userSpaceOnUse" gradientTransform="translate(5.5885 4.1965) scale(20.156)">
<stop stop-color="#0370C8"/>
<stop offset="0.484" stop-color="#036FC5"/>
<stop offset="0.775" stop-color="#036ABD"/>
<stop offset="1" stop-color="#0362B0"/>
</radialGradient>
<radialGradient id="paint1_radial_19_1643" cx="0" cy="0" r="1" gradientUnits="userSpaceOnUse" gradientTransform="translate(12.0295 22.78) scale(7.234)">
<stop offset="0.177"/>
<stop offset="1" stop-opacity="0"/>
</radialGradient>
<linearGradient id="paint2_linear_19_1643" x1="10.2625" y1="6.45" x2="15.2745" y2="13.5645" gradientUnits="userSpaceOnUse">
<stop stop-color="#75DAFF"/>
<stop offset="1" stop-color="#1EA2E4"/>
</linearGradient>
<linearGradient id="paint3_linear_19_1643" x1="8.58794" y1="16.422" x2="15.3144" y2="22.507" gradientUnits="userSpaceOnUse">
<stop stop-color="#75DAFF"/>
<stop offset="1" stop-color="#1EA2E4"/>
</linearGradient>
</defs>
</svg>
