<svg width="17" height="16" viewBox="0 0 17 16" fill="none" xmlns="http://www.w3.org/2000/svg">
<g id="icons8_dice_1 1">
<path id="Vector" d="M8.49996 1.32935C8.00485 1.32935 7.51008 1.44515 7.05725 1.677C7.05682 1.67722 7.05638 1.67744 7.05595 1.67765L3.16077 3.68286C2.55131 3.99674 2.16663 4.62728 2.16663 5.31307V10.6868C2.16663 11.3723 2.55088 12.0027 3.16077 12.3163L7.05595 14.3222C7.05617 14.3224 7.05638 14.3226 7.0566 14.3228C7.96226 14.7865 9.03701 14.7865 9.94267 14.3228C9.9431 14.3226 9.94354 14.3224 9.94397 14.3222L13.8392 12.3163C14.4486 12.0024 14.8326 11.3723 14.8326 10.6868V5.31307C14.8326 4.62765 14.4488 3.99723 13.8392 3.68351H13.8385L9.94397 1.67765C9.94375 1.67744 9.94354 1.67722 9.94332 1.677C9.49051 1.44515 8.99507 1.32935 8.49996 1.32935ZM8.49996 2.32935C8.83852 2.32935 9.17742 2.40881 9.48759 2.56763L13.3808 4.57218C13.381 4.5724 13.3813 4.57262 13.3815 4.57284C13.6596 4.71586 13.8326 4.99998 13.8326 5.31307V10.6868C13.8326 10.9999 13.6594 11.2842 13.3808 11.4277L9.48694 13.4322C8.86703 13.7496 8.1337 13.7498 7.51363 13.4329L7.51233 13.4322L3.61845 11.4277C3.61845 11.4274 3.61845 11.4272 3.61845 11.427C3.34032 11.284 3.16663 10.9999 3.16663 10.6868V5.31307C3.16663 4.99953 3.3399 4.71564 3.61845 4.57218L7.51298 2.56763C7.82315 2.40881 8.1614 2.32935 8.49996 2.32935ZM8.49996 3.99992C8.27895 3.99992 8.06698 4.0526 7.9107 4.14636C7.75442 4.24013 7.66663 4.36731 7.66663 4.49992C7.66663 4.63253 7.75442 4.7597 7.9107 4.85347C8.06698 4.94724 8.27895 4.99992 8.49996 4.99992C8.72097 4.99992 8.93293 4.94724 9.08922 4.85347C9.2455 4.7597 9.33329 4.63253 9.33329 4.49992C9.33329 4.36731 9.2455 4.24013 9.08922 4.14636C8.93293 4.0526 8.72097 3.99992 8.49996 3.99992ZM4.32353 4.83C4.21138 4.83095 4.10281 4.86958 4.01526 4.93968C3.92772 5.00977 3.86627 5.10727 3.84081 5.21649C3.81534 5.32571 3.82734 5.44032 3.87486 5.54191C3.92237 5.64349 4.00266 5.72615 4.10282 5.77661L7.04683 7.30656C7.3494 7.46369 7.67183 7.56373 7.99996 7.61645V12.4999C7.99902 12.5662 8.01126 12.632 8.03597 12.6934C8.06068 12.7549 8.09736 12.8109 8.14388 12.8581C8.1904 12.9053 8.24584 12.9427 8.30697 12.9683C8.36809 12.9939 8.4337 13.007 8.49996 13.007C8.56622 13.007 8.63182 12.9939 8.69295 12.9683C8.75408 12.9427 8.80952 12.9053 8.85604 12.8581C8.90256 12.8109 8.93924 12.7549 8.96395 12.6934C8.98866 12.632 9.0009 12.5662 8.99996 12.4999V7.61645C9.32787 7.5637 9.65006 7.46359 9.95243 7.30656C9.95265 7.30656 9.95287 7.30656 9.95308 7.30656L12.8971 5.77726C13.0149 5.71614 13.1035 5.61074 13.1436 5.48425C13.1836 5.35776 13.1718 5.22054 13.1106 5.10278C13.0495 4.98502 12.9441 4.89637 12.8176 4.85632C12.6911 4.81628 12.5539 4.82812 12.4362 4.88924L9.4915 6.41919C9.18706 6.57718 8.85507 6.65707 8.52275 6.66073C8.51256 6.65998 8.50236 6.65954 8.49215 6.65942C8.4865 6.65976 8.48085 6.6602 8.47522 6.66073C8.14313 6.65702 7.81195 6.57716 7.50777 6.41919L4.56376 4.88989C4.48997 4.8501 4.40736 4.82951 4.32353 4.83ZM4.33329 6.66658C4.20068 6.66658 4.07351 6.75438 3.97974 6.91066C3.88597 7.06694 3.83329 7.2789 3.83329 7.49992C3.83329 7.72093 3.88597 7.93289 3.97974 8.08917C4.07351 8.24545 4.20068 8.33325 4.33329 8.33325C4.4659 8.33325 4.59308 8.24545 4.68685 8.08917C4.78061 7.93289 4.83329 7.72093 4.83329 7.49992C4.83329 7.2789 4.78061 7.06694 4.68685 6.91066C4.59308 6.75438 4.4659 6.66658 4.33329 6.66658ZM12.3333 6.99992C12.2007 6.99992 12.0735 7.08772 11.9797 7.244C11.886 7.40028 11.8333 7.61224 11.8333 7.83325C11.8333 8.05427 11.886 8.26623 11.9797 8.42251C12.0735 8.57879 12.2007 8.66658 12.3333 8.66658C12.4659 8.66658 12.5931 8.57879 12.6868 8.42251C12.7806 8.26623 12.8333 8.05427 12.8333 7.83325C12.8333 7.61224 12.7806 7.40028 12.6868 7.244C12.5931 7.08772 12.4659 6.99992 12.3333 6.99992ZM5.66663 8.66658C5.53402 8.66658 5.40684 8.75438 5.31307 8.91066C5.2193 9.06694 5.16663 9.2789 5.16663 9.49992C5.16663 9.72093 5.2193 9.93289 5.31307 10.0892C5.40684 10.2455 5.53402 10.3333 5.66663 10.3333C5.79923 10.3333 5.92641 10.2455 6.02018 10.0892C6.11395 9.93289 6.16663 9.72093 6.16663 9.49992C6.16663 9.2789 6.11395 9.06694 6.02018 8.91066C5.92641 8.75438 5.79923 8.66658 5.66663 8.66658ZM10.6666 9.99992C10.534 9.99992 10.4068 10.0877 10.3131 10.244C10.2193 10.4003 10.1666 10.6122 10.1666 10.8333C10.1666 11.0543 10.2193 11.2662 10.3131 11.4225C10.4068 11.5788 10.534 11.6666 10.6666 11.6666C10.7992 11.6666 10.9264 11.5788 11.0202 11.4225C11.1139 11.2662 11.1666 11.0543 11.1666 10.8333C11.1666 10.6122 11.1139 10.4003 11.0202 10.244C10.9264 10.0877 10.7992 9.99992 10.6666 9.99992ZM6.99996 10.6666C6.86735 10.6666 6.74017 10.7544 6.64641 10.9107C6.55264 11.0669 6.49996 11.2789 6.49996 11.4999C6.49996 11.7209 6.55264 11.9329 6.64641 12.0892C6.74017 12.2455 6.86735 12.3333 6.99996 12.3333C7.13257 12.3333 7.25974 12.2455 7.35351 12.0892C7.44728 11.9329 7.49996 11.7209 7.49996 11.4999C7.49996 11.2789 7.44728 11.0669 7.35351 10.9107C7.25974 10.7544 7.13257 10.6666 6.99996 10.6666Z" fill="#151C3B"/>
</g>
</svg>
