<svg width="64" height="64" viewBox="0 0 64 64" fill="none" xmlns="http://www.w3.org/2000/svg">
<g id="icons8_Us_Dollar_Circled 1">
<path id="Vector" d="M58.6667 31.9999C58.6667 46.7266 46.7267 58.6666 32 58.6666C17.2734 58.6666 5.33337 46.7266 5.33337 31.9999C5.33337 17.2733 17.2734 5.33325 32 5.33325C46.7267 5.33325 58.6667 17.2733 58.6667 31.9999Z" fill="url(#paint0_linear_19_1568)"/>
<path id="Vector_2" opacity="0.05" d="M28.9654 24.8653C28.9654 23.6827 29.9867 23.0827 32.0001 23.0827C34.7734 23.0827 37.0667 23.964 38.1881 24.4893C38.8827 24.816 41.3334 25.272 41.3334 22.5133V19.72C41.3334 17.6747 40.0987 16.9733 39.5681 16.7667C38.2787 16.2653 36.6667 15.9493 34.6667 15.8067V14C34.6667 12.8973 33.7694 12 32.6667 12H31.3334C30.2307 12 29.3334 12.8973 29.3334 14V15.964C25.0454 16.748 20.8694 19.5387 20.8694 25.3307C20.8694 36.9227 35.0347 35.924 35.0347 38.5427C35.0347 39.016 35.0347 40.2747 32.0001 40.2747C28.4747 40.2747 25.38 38.832 24.516 38.3907C23.8347 38.04 21.3334 37.7867 21.3334 40.3493V43.5267C21.3334 44.668 22.0161 45.6947 23.0734 46.144C24.8614 46.904 27.1681 47.5093 29.3334 47.8013V50C29.3334 51.1027 30.2307 52 31.3334 52H32.6667C33.7694 52 34.6667 51.1027 34.6667 50V47.7893C40.8854 46.7547 43.1307 42.108 43.1307 38.2573C43.1307 26.936 28.9654 28.7333 28.9654 24.8653Z" fill="black"/>
<path id="Vector_3" opacity="0.07" d="M28.2987 24.8654C28.2987 22.7947 30.4733 22.4161 32 22.4161C34.636 22.4161 36.9907 23.1921 38.4707 23.8867C39.108 24.1854 40.6667 24.2121 40.6667 22.5134V19.7201C40.6667 18.2294 39.8733 17.6001 39.3267 17.3881C38.0507 16.8921 36.3387 16.5547 34 16.4401V14.0001C34 13.2641 33.4027 12.6667 32.6667 12.6667H31.3333C30.5973 12.6667 30 13.2641 30 14.0001V16.5427C25.7787 17.1374 21.536 19.7054 21.536 25.3294C21.536 36.0987 35.7013 34.6134 35.7013 38.5414C35.7013 39.6014 35.176 40.9401 32 40.9401C28.5707 40.9401 25.492 39.6374 24.2133 38.9827C23.588 38.6614 22 38.7467 22 40.3481V43.5267C22 44.4028 22.5253 45.1867 23.3347 45.5307C25.2333 46.3374 27.7333 46.9627 30 47.2028V50.0001C30 50.7361 30.5973 51.3334 31.3333 51.3334H32.6667C33.4027 51.3334 34 50.7361 34 50.0001V47.2001C40.2173 46.4228 42.464 42.0187 42.464 38.2561C42.464 27.7987 28.2987 29.6334 28.2987 24.8654Z" fill="black"/>
<path id="Vector_4" d="M41.7973 38.2559C41.7973 28.6613 27.632 30.5346 27.632 24.8653C27.632 21.9053 30.9586 21.7493 32 21.7493C34.5 21.7493 36.9133 22.4199 38.7533 23.2826C39.3333 23.5559 40 23.1533 40 22.5133V19.7199C40 18.7839 39.648 18.2279 39.0853 18.0093C37.824 17.5186 36.012 17.1613 33.3333 17.0719V13.9999C33.3333 13.6319 33.0346 13.3333 32.6666 13.3333H31.3333C30.9653 13.3333 30.6666 13.6319 30.6666 13.9999V17.1226C26.512 17.5293 22.2026 19.8733 22.2026 25.3306C22.2026 35.2773 36.368 33.3053 36.368 38.5426C36.368 40.1892 35.316 41.6079 32 41.6079C28.6666 41.6079 25.604 40.4453 23.9093 39.5773C23.3386 39.2853 22.6666 39.7079 22.6666 40.3479V43.5266C22.6666 44.1359 23.0333 44.6786 23.5946 44.9159C25.6026 45.7692 28.2973 46.4146 30.6666 46.6039V49.9999C30.6666 50.3679 30.9653 50.6666 31.3333 50.6666H32.6666C33.0346 50.6666 33.3333 50.3679 33.3333 49.9999V46.6119C39.5506 46.0919 41.7973 41.9306 41.7973 38.2559Z" fill="white"/>
</g>
<defs>
<linearGradient id="paint0_linear_19_1568" x1="13.144" y1="13.1439" x2="50.856" y2="50.8559" gradientUnits="userSpaceOnUse">
<stop stop-color="#21AD64"/>
<stop offset="1" stop-color="#088242"/>
</linearGradient>
</defs>
</svg>
