<svg viewBox="0 0 36 40" width="36" color="text" xmlns="http://www.w3.org/2000/svg"
    class="Svg-sc-1idgvhl-0 djTIXR">
    <g id="page-3" stroke="none" stroke-width="1" fill="none" fill-rule="evenodd">
        <g id="AF_logomark" fill-rule="nonzero">
            <path
                d="M1.36641363,12.1582143 L1.36641363,27.8385032 C1.36641363,28.8396521 1.90964636,29.7653044 2.78948343,30.2642376 L16.5769302,38.1060233 C17.4567673,38.6049565 18.5399,38.6049565 19.4197371,38.1060233 L33.2071839,30.2642376 C34.0870209,29.7653044 34.6302537,28.8396521 34.6302537,27.8385032 L34.6302537,12.1582143 C34.6302537,11.1570655 34.0870209,10.2314131 33.2071839,9.73247989 L19.4197371,1.89069424 C18.5399,1.39176104 17.4567673,1.39176104 16.5769302,1.89069424 L2.78615071,9.73247989 C1.90631365,10.2314131 1.36641363,11.1570655 1.36641363,12.1582143 Z"
                id="path" fill="#213147"></path>
            <g id="group" transform="translate(18.999815, 13.888889)" fill="#12AAFF">
                <path
                    d="M2.00629513,9.1506647 L0.039992594,14.4616773 C-0.0133308647,14.6093878 -0.0133308647,14.7702281 0.039992594,14.9179386 L3.4226995,24.0562941 L7.33530828,21.8307894 L2.6395112,9.1506647 C2.53286428,8.85852618 2.11294205,8.85852618 2.00629513,9.1506647 Z"
                    id="path"></path>
                <path
                    d="M5.94889835,0.21910389 C5.84225143,-0.0730346299 5.4223292,-0.0730346299 5.31568228,0.21910389 L3.34937974,5.53011653 C3.29605629,5.67782701 3.29605629,5.83866732 3.34937974,5.98637781 L8.89168672,20.947809 L12.8042955,18.7223043 L5.94889835,0.21910389 Z"
                    id="path"></path>
            </g>
            <path
                d="M17.9966673,2.47825373 C18.0933161,2.47825373 18.1899648,2.50451338 18.2766154,2.55046775 L33.1971857,11.0356146 C33.3704869,11.1340883 33.4771339,11.3179058 33.4771339,11.5115707 L33.4771339,28.478582 C33.4771339,28.6755293 33.3704869,28.8560643 33.1971857,28.954538 L18.2766154,37.4396849 C18.1932975,37.4889217 18.0933161,37.5118989 17.9966673,37.5118989 C17.9000185,37.5118989 17.8033697,37.4856393 17.7167191,37.4396849 L2.79614886,28.9611029 C2.62284762,28.8626292 2.5162007,28.6788118 2.5162007,28.4851469 L2.5162007,11.5148531 C2.5162007,11.3179058 2.62284762,11.1373708 2.79614886,11.0388971 L17.7167191,2.55375021 C17.8033697,2.50451338 17.9000185,2.47825373 17.9966673,2.47825373 M17.9966673,0 C17.4667654,0 16.9335308,0.134580666 16.4569524,0.407024454 L1.53971487,8.88888889 C0.586558045,9.43049401 0,10.4316429 0,11.5148531 L0,28.4818644 C0,29.5650747 0.586558045,30.5662235 1.53971487,31.1078287 L16.4602851,39.5929755 C16.9368635,39.8621369 17.4667654,40 18,40 C18.5299019,40 19.0631365,39.8654193 19.5397149,39.5929755 L34.4602851,31.1078287 C35.413442,30.5662235 36,29.5650747 36,28.4818644 L36,11.5148531 C36,10.4316429 35.413442,9.43049401 34.4602851,8.88888889 L19.5363822,0.407024454 C19.0598037,0.134580666 18.5265692,0 17.9966673,0 L17.9966673,0 Z"
                id="形状" fill="#9DCCED"></path>
            <polygon id="path" fill="#213147"
                points="8.12849472 34.8563926 9.50157378 31.153783 12.2643955 33.4153947 9.68154046 35.7393731"></polygon>
            <g id="group" transform="translate(4.215886, 10.300345)" fill="#FFFFFF">
                <path
                    d="M12.5243473,0 L8.7417145,0 C8.45843362,0 8.20514719,0.17397013 8.10849843,0.436566552 L0,22.3305432 L3.91260878,24.5560479 L12.8409554,0.446413918 C12.9242733,0.229771869 12.7609702,0 12.5243473,0 Z"
                    id="path"></path>
                <path
                    d="M19.1431216,0 L15.3604888,0 C15.0772079,0 14.8239215,0.17397013 14.7272727,0.436566552 L5.46898722,25.4357459 L9.381596,27.6612506 L19.4597297,0.446413918 C19.5397149,0.229771869 19.3764118,0 19.1431216,0 Z"
                    id="path"></path>
            </g>
        </g>
    </g>
</svg>