<svg width="42" height="43" viewBox="0 0 42 43" fill="none" xmlns="http://www.w3.org/2000/svg">
<g id="icons8_prize 1">
<path id="Vector" d="M29.75 24.7944H12.25V40.7492C12.25 41.4291 12.992 41.8491 13.5747 41.4991L21 37.0444L28.4253 41.4991C29.0089 41.8491 29.75 41.4291 29.75 40.7492V24.7944Z" fill="url(#paint0_radial_19_392)"/>
<path id="Vector_2" d="M35.9057 15.6322L34.805 14.9707C34.336 14.6889 34.0192 14.2261 33.8757 13.6984C33.8722 13.6888 33.8713 13.6792 33.8678 13.6687C33.7217 13.1367 33.7655 12.5697 34.0332 12.0876L34.6571 10.9649C35.295 9.81693 34.4795 8.40206 33.1652 8.38018L31.8693 8.35743C31.3198 8.34781 30.8106 8.10368 30.4238 7.71606C30.4195 7.71168 30.416 7.70818 30.4116 7.70381C30.0213 7.31618 29.779 6.80606 29.7693 6.25743L29.7475 4.96156C29.7256 3.64818 28.3107 2.83181 27.1627 3.46968L26.0401 4.09356C25.5562 4.36131 24.991 4.40506 24.459 4.25893C24.4493 4.25543 24.4397 4.25456 24.4292 4.25106C23.9016 4.10756 23.4387 3.79081 23.157 3.32181L22.4955 2.22106C21.82 1.09493 20.1863 1.09493 19.5108 2.22106L18.8528 3.31743C18.5693 3.78993 18.1012 4.10931 17.571 4.25456C17.5648 4.25631 17.5596 4.25806 17.5535 4.25893C17.0162 4.40681 16.4466 4.36306 15.9592 4.09181L14.841 3.47143C13.693 2.83356 12.2781 3.64906 12.2562 4.96331L12.2326 6.25743C12.223 6.80518 11.9788 7.31618 11.5912 7.70293C11.5868 7.70643 11.5816 7.71081 11.579 7.71518C11.1913 8.10456 10.6812 8.34693 10.1335 8.35656L8.83758 8.37843C7.5242 8.40031 6.70783 9.81343 7.3457 10.9632L7.96958 12.0858C8.23733 12.5697 8.28108 13.1349 8.13495 13.6669C8.13058 13.6766 8.12883 13.6871 8.12533 13.6967C7.98183 14.2243 7.6642 14.6872 7.19608 14.9689L6.09533 15.6304C4.9692 16.3059 4.9692 17.9396 6.09533 18.6151L7.19608 19.2766C7.66508 19.5583 7.98183 20.0212 8.12533 20.5488C8.12883 20.5584 8.1297 20.5681 8.1332 20.5786C8.27933 21.1106 8.23558 21.6776 7.96783 22.1597L7.34395 23.2823C6.70608 24.4303 7.52158 25.8452 8.83583 25.8671L10.1317 25.8889C10.6812 25.8986 11.1905 26.1427 11.5772 26.5303C11.5816 26.5347 11.5851 26.5382 11.5895 26.5426C11.9788 26.9302 12.2212 27.4403 12.2308 27.9881L12.2527 29.2839C12.2746 30.5973 13.6895 31.4137 14.8375 30.7758L15.9601 30.1519C16.444 29.8842 17.0092 29.8404 17.5412 29.9866C17.5508 29.9901 17.5613 29.9909 17.571 29.9944C18.0986 30.1379 18.5615 30.4547 18.8432 30.9237L19.5047 32.0244C20.1802 33.1506 21.8138 33.1506 22.4893 32.0244L23.1508 30.9237C23.4326 30.4547 23.8955 30.1379 24.4231 29.9944C24.4327 29.9909 24.4432 29.9901 24.4528 29.9866C24.9848 29.8404 25.5518 29.8842 26.034 30.1519L27.1566 30.7758C28.3046 31.4137 29.7195 30.5982 29.7413 29.2839L29.7632 27.9881C29.7728 27.4386 30.017 26.9293 30.4046 26.5426C30.409 26.5382 30.4125 26.5347 30.4168 26.5303C30.8045 26.1409 31.3146 25.8986 31.8623 25.8889L33.1582 25.8671C34.4716 25.8452 35.288 24.4303 34.6501 23.2823L34.0262 22.1597C33.7585 21.6758 33.7147 21.1106 33.8608 20.5786C33.8643 20.5689 33.8652 20.5593 33.8687 20.5488C34.0122 20.0212 34.329 19.5583 34.798 19.2766L35.8987 18.6151C37.0318 17.9404 37.0318 16.3086 35.9057 15.6322Z" fill="url(#paint1_linear_19_392)"/>
<path id="Vector_3" d="M21 25.875C25.8325 25.875 29.75 21.9575 29.75 17.125C29.75 12.2925 25.8325 8.375 21 8.375C16.1675 8.375 12.25 12.2925 12.25 17.125C12.25 21.9575 16.1675 25.875 21 25.875Z" stroke="#FFDF26" stroke-width="10"/>
</g>
<defs>
<radialGradient id="paint0_radial_19_392" cx="0" cy="0" r="1" gradientUnits="userSpaceOnUse" gradientTransform="translate(20.9501 17.0559) scale(19.9194 19.9194)">
<stop offset="0.655" stop-color="#871233"/>
<stop offset="0.718" stop-color="#8E1336"/>
<stop offset="0.812" stop-color="#A3163E"/>
<stop offset="0.9" stop-color="#BC1948"/>
</radialGradient>
<linearGradient id="paint1_linear_19_392" x1="12.993" y1="3.20718" x2="28.9433" y2="30.9307" gradientUnits="userSpaceOnUse">
<stop stop-color="#FFDA1C"/>
<stop offset="1" stop-color="#FEB705"/>
</linearGradient>
</defs>
</svg>
