<svg width="64" height="64" viewBox="0 0 64 64" fill="none" xmlns="http://www.w3.org/2000/svg">
<g id="icons8_sand_timer_2 1">
<path id="Vector" d="M48 18.9561V10.6667H16V18.9561C16 25.0547 20.1507 30.3721 26.068 31.8507L26.6667 32.0001L26.068 32.1494C20.1507 33.6294 16 38.9454 16 45.0441V53.3334H48V45.0441C48 38.9454 43.8493 33.6281 37.932 32.1494L37.3333 32.0001L37.932 31.8507C43.8493 30.3707 48 25.0547 48 18.9561Z" fill="#6AD7FC"/>
<path id="Vector_2" d="M48 14.6667H16C15.264 14.6667 14.6666 14.0694 14.6666 13.3334V10.6667H49.3333V13.3334C49.3333 14.0694 48.736 14.6667 48 14.6667Z" fill="url(#paint0_linear_19_1561)"/>
<path id="Vector_3" d="M50.6667 10.6667H13.3333C12.5973 10.6667 12 10.0694 12 9.33341V8.00008C12 7.26408 12.5973 6.66675 13.3333 6.66675H50.6667C51.4027 6.66675 52 7.26408 52 8.00008V9.33341C52 10.0694 51.4027 10.6667 50.6667 10.6667Z" fill="url(#paint1_linear_19_1561)"/>
<path id="Vector_4" d="M45.6733 50.6667C42.6666 41.3334 33.3613 38.6667 32.0279 38.6667C30.6946 38.6667 21.3333 41.3334 18.3546 50.6667H45.6733Z" fill="url(#paint2_linear_19_1561)"/>
<path id="Vector_5" d="M16 49.3333H48C48.736 49.3333 49.3333 49.9306 49.3333 50.6666V53.3333H14.6666V50.6666C14.6666 49.9306 15.264 49.3333 16 49.3333Z" fill="url(#paint3_linear_19_1561)"/>
<path id="Vector_6" d="M13.3333 53.3333H50.6667C51.4027 53.3333 52 53.9306 52 54.6666V55.9999C52 56.7359 51.4027 57.3333 50.6667 57.3333H13.3333C12.5973 57.3333 12 56.7359 12 55.9999V54.6666C12 53.9306 12.5973 53.3333 13.3333 53.3333Z" fill="url(#paint4_linear_19_1561)"/>
</g>
<defs>
<linearGradient id="paint0_linear_19_1561" x1="14.6666" y1="12.6667" x2="49.3333" y2="12.6667" gradientUnits="userSpaceOnUse">
<stop stop-color="#3079D6"/>
<stop offset="1" stop-color="#297CD2"/>
</linearGradient>
<linearGradient id="paint1_linear_19_1561" x1="12" y1="8.66675" x2="52" y2="8.66675" gradientUnits="userSpaceOnUse">
<stop stop-color="#42A3F2"/>
<stop offset="1" stop-color="#42A4EB"/>
</linearGradient>
<linearGradient id="paint2_linear_19_1561" x1="32.0133" y1="38.8761" x2="32.0133" y2="53.0574" gradientUnits="userSpaceOnUse">
<stop stop-color="#EBA84B"/>
<stop offset="1" stop-color="#D97218"/>
</linearGradient>
<linearGradient id="paint3_linear_19_1561" x1="49.3333" y1="51.3333" x2="14.6666" y2="51.3333" gradientUnits="userSpaceOnUse">
<stop stop-color="#3079D6"/>
<stop offset="1" stop-color="#297CD2"/>
</linearGradient>
<linearGradient id="paint4_linear_19_1561" x1="52" y1="55.3333" x2="12" y2="55.3333" gradientUnits="userSpaceOnUse">
<stop stop-color="#42A3F2"/>
<stop offset="1" stop-color="#42A4EB"/>
</linearGradient>
</defs>
</svg>
