<svg width="40" height="40" viewBox="0 0 40 40" fill="none" xmlns="http://www.w3.org/2000/svg">
<g id="icons8_two_tickets_2 1">
<path id="Vector" d="M32.4998 9.1665H26.6665V28.3332H32.4998V9.1665Z" fill="url(#paint0_linear_19_214)"/>
<path id="Vector_2" d="M36.6668 16.6858V9.16667C36.6668 8.24583 35.921 7.5 35.0002 7.5H5.00016C4.07933 7.5 3.3335 8.24583 3.3335 9.16667V16.6858C4.34016 17.4458 5.00016 18.6417 5.00016 20C5.00016 21.3583 4.34016 22.5542 3.3335 23.3142V30.8333C3.3335 31.7542 4.07933 32.5 5.00016 32.5H35.0002C35.921 32.5 36.6668 31.7542 36.6668 30.8333V23.3142C35.6602 22.5533 35.0002 21.3583 35.0002 20C35.0002 18.6417 35.6602 17.4458 36.6668 16.6858ZM29.1668 30.8333C28.7068 30.8333 28.3335 30.46 28.3335 30C28.3335 29.54 28.7068 29.1667 29.1668 29.1667C29.6268 29.1667 30.0002 29.54 30.0002 30C30.0002 30.46 29.6268 30.8333 29.1668 30.8333ZM29.1668 27.5C28.7068 27.5 28.3335 27.1267 28.3335 26.6667C28.3335 26.2067 28.7068 25.8333 29.1668 25.8333C29.6268 25.8333 30.0002 26.2067 30.0002 26.6667C30.0002 27.1267 29.6268 27.5 29.1668 27.5ZM29.1668 24.1667C28.7068 24.1667 28.3335 23.7933 28.3335 23.3333C28.3335 22.8733 28.7068 22.5 29.1668 22.5C29.6268 22.5 30.0002 22.8733 30.0002 23.3333C30.0002 23.7933 29.6268 24.1667 29.1668 24.1667ZM29.1668 20.8333C28.7068 20.8333 28.3335 20.46 28.3335 20C28.3335 19.54 28.7068 19.1667 29.1668 19.1667C29.6268 19.1667 30.0002 19.54 30.0002 20C30.0002 20.46 29.6268 20.8333 29.1668 20.8333ZM29.1668 17.5C28.7068 17.5 28.3335 17.1267 28.3335 16.6667C28.3335 16.2067 28.7068 15.8333 29.1668 15.8333C29.6268 15.8333 30.0002 16.2067 30.0002 16.6667C30.0002 17.1267 29.6268 17.5 29.1668 17.5ZM29.1668 14.1667C28.7068 14.1667 28.3335 13.7933 28.3335 13.3333C28.3335 12.8733 28.7068 12.5 29.1668 12.5C29.6268 12.5 30.0002 12.8733 30.0002 13.3333C30.0002 13.7933 29.6268 14.1667 29.1668 14.1667ZM29.1668 10.8333C28.7068 10.8333 28.3335 10.46 28.3335 10C28.3335 9.54 28.7068 9.16667 29.1668 9.16667C29.6268 9.16667 30.0002 9.54 30.0002 10C30.0002 10.46 29.6268 10.8333 29.1668 10.8333Z" fill="url(#paint1_linear_19_214)"/>
<path id="Vector_3" d="M35.5166 7.49985L34.8108 3.94819C34.6316 3.04485 33.7541 2.45902 32.8508 2.63819L8.39746 7.49985H35.5166ZM27.4541 5.41069C27.905 5.32069 28.3441 5.61402 28.4341 6.06569C28.5241 6.51652 28.2308 6.95569 27.7791 7.04569C27.3283 7.13569 26.8891 6.84235 26.7991 6.39069C26.7091 5.93902 27.0033 5.49985 27.4541 5.41069Z" fill="url(#paint2_linear_19_214)"/>
</g>
<defs>
<linearGradient id="paint0_linear_19_214" x1="27.9765" y1="9.34067" x2="31.159" y2="27.9748" gradientUnits="userSpaceOnUse">
<stop stop-color="#D69400"/>
<stop offset="0.057" stop-color="#D49200"/>
<stop offset="0.554" stop-color="#C78600"/>
<stop offset="1" stop-color="#C28200"/>
</linearGradient>
<linearGradient id="paint1_linear_19_214" x1="10.5718" y1="4.66" x2="29.6502" y2="35.7008" gradientUnits="userSpaceOnUse">
<stop stop-color="#FFD869"/>
<stop offset="1" stop-color="#FEC52B"/>
</linearGradient>
<linearGradient id="paint2_linear_19_214" x1="21.4791" y1="3.65152" x2="24.4566" y2="27.624" gradientUnits="userSpaceOnUse">
<stop stop-color="#D69400"/>
<stop offset="0.057" stop-color="#D49200"/>
<stop offset="0.554" stop-color="#C78600"/>
<stop offset="1" stop-color="#C28200"/>
</linearGradient>
</defs>
</svg>
